<svg width="44" height="40" viewBox="0 0 44 40" fill="none" xmlns="http://www.w3.org/2000/svg">
<path d="M34.5 14.1385C38.6154 14.2858 42.1098 17.3724 41.9974 21.5073C41.9712 22.4693 41.5986 23.6583 40.8533 26.0363C39.0596 31.7593 36.0452 36.7274 29.2923 37.9194C28.051 38.1386 26.6542 38.1386 23.8606 38.1386H20.1394C17.3458 38.1386 15.949 38.1386 14.7077 37.9194C7.95479 36.7274 4.94036 31.7593 3.14672 26.0363C2.40143 23.6583 2.02879 22.4693 2.00264 21.5073C1.89024 17.3724 5.3846 14.2858 9.50001 14.1385" stroke="#141B34" stroke-width="3" stroke-linecap="round"/>
<path d="M22 24.1387L22 2.13867M22 24.1387C20.5995 24.1387 17.9831 20.1501 17 19.1387M22 24.1387C23.4005 24.1387 26.0169 20.1501 27 19.1387" stroke="#141B34" stroke-width="3" stroke-linecap="round" stroke-linejoin="round"/>
</svg>
